<?xml version="1.0" encoding="utf-8"?>
<svg width="976" height="1019" version="1.1" xmlns="http://www.w3.org/2000/svg">
  <g class="currentLayer">
    <title>Layer 1</title>
    <g fill="#eb1a1a" class="selected" id="svg_1">
      <g fill="#eb1a1a" id="svg_2">
        <g fill="#eb1a1a" id="svg_3">
          <path class="st0" d="m100.85445,1211.34004l0,-166.7l62.6,0c35.2,0 61.4,24.3 61.4,57.3c0,32 -26.2,56.6 -61.4,56.6l-19.8,0l0,52.8l-42.8,0zm42.9,-92.7l19,0c11.6,0 18.3,-7.4 18.3,-16.9c0,-9.7 -7,-17.2 -18.3,-17.2l-19,0l0,34.1z" id="svg_4" style="fill: rgb(145, 36, 55);"/>
        </g>
        <g fill="#eb1a1a" id="svg_5">
          <path class="st0" d="m239.65445,1135.24004l0,-90.6l43.1,0l0,90.6c0,21.8 15.1,37.6 35.2,37.6c20.9,0 35.5,-16 35.5,-37.6l0,-90.6l42.9,0l0,90.6c0,44.7 -33.4,77.9 -78.4,77.9c-44.7,0 -78.3,-33.1 -78.3,-77.9z" id="svg_6" style="fill: rgb(145, 36, 55);"/>
        </g>
        <g fill="#eb1a1a" id="svg_7">
          <path class="st0" d="m413.95445,1127.84004c0,-48 37.1,-85.1 87.6,-85.1c44,0 76.3,29.4 81.6,68.6l-42.9,0c-5.1,-16 -18.8,-28.3 -38.7,-28.3c-25.5,0 -42.9,19.5 -42.9,44.7c0,25.5 17.6,45 42.9,45c19.9,0 33.8,-12.1 38.5,-28.3l43.3,0c-5.8,39.9 -37.8,68.6 -81.8,68.6c-50,0.1 -87.6,-36.7 -87.6,-85.2z" id="svg_8" style="fill: rgb(145, 36, 55);"/>
        </g>
        <g fill="#eb1a1a" id="svg_9">
          <path class="st0" d="m604.25445,1211.34004l0,-166.7l62.6,0c35.2,0 61.4,24.3 61.4,57.3c0,32 -26.2,56.6 -61.4,56.6l-19.7,0l0,52.8l-42.9,0zm42.9,-92.7l19,0c11.6,0 18.3,-7.4 18.3,-16.9c0,-9.7 -7,-17.2 -18.3,-17.2l-19,0l0,34.1z" id="svg_10" style="fill: rgb(145, 36, 55);"/>
        </g>
        <g fill="#eb1a1a" id="svg_11">
          <path class="st0" d="m747.55445,1211.34004l0,-166.7l61.7,0c34.8,0 61.2,24.6 61.2,55.9c0,20.4 -11.4,37.6 -29,47.1l31.1,63.7l-46.6,0l-24.8,-55.6l-10.9,0l0,55.6l-42.7,0l0,0zm42.6,-91.3l16.9,0c12.5,0 20.4,-7.7 20.4,-18.8c0,-10.9 -8.1,-18.3 -20.6,-18.3l-16.7,0l0,37.1z" id="svg_12" style="fill: rgb(145, 36, 55);"/>
        </g>
      </g>
      <g fill="#eb1a1a" id="svg_13">
        <g fill="#eb1a1a" id="svg_14">
          <path class="st0" d="m203.05445,797.14004l3.6,7c-4.8,2.6 -5.8,6.5 -3.6,10.6c2.4,4.5 6.2,5.3 10,3.4c9.4,-4.9 -0.4,-24.9 13.6,-32.3c6.8,-3.5 14.5,-1.2 18.7,6.7c4.2,8.1 1.6,15.7 -6.4,20l-3.6,-7c4.5,-2.5 5.4,-6 3.5,-9.6c-2,-3.8 -5.3,-4.9 -8.7,-3.2c-9.2,4.8 1.1,24.7 -13.5,32.3c-7,3.7 -15.6,1.9 -20.2,-7c-4.4,-8.2 -2,-16.3 6.6,-20.9z" id="svg_15" style="fill: rgb(145, 36, 55);"/>
        </g>
        <g fill="#eb1a1a" id="svg_16">
          <path class="st0" d="m222.75445,831.64004l18.1,-12.4c8.9,-6.1 17.1,-4.5 22.4,3.3c5.5,8 3.9,16 -4.6,22.3l-4.3,-6.3c4.9,-3.9 5.7,-7.8 2.8,-12c-2.5,-3.7 -6.7,-4.5 -11.9,-0.9l-18.1,12.4c-5.2,3.6 -6,7.7 -3.4,11.5c2.9,4.3 6.9,4.9 12.2,1.9l4.3,6.3c-9,5.5 -17,4.1 -22.5,-4c-5.2,-7.8 -3.8,-16.1 5,-22.1z" id="svg_17" style="fill: rgb(145, 36, 55);"/>
        </g>
        <g fill="#eb1a1a" id="svg_18">
          <path class="st0" d="m280.55445,846.34004l-40.7,34.4l-5,-5.9l40.7,-34.4l5,5.9z" id="svg_19" style="fill: rgb(145, 36, 55);"/>
        </g>
        <g fill="#eb1a1a" id="svg_20">
          <path class="st0" d="m273.65445,904.94004l-5,5.2l-19.4,-18.6l36.9,-38.4l18.8,18.1l-5,5.2l-13.3,-12.8l-10.7,11.1l12.2,11.8l-4.9,5.1l-12.2,-11.8l-11.3,11.7l13.9,13.4z" id="svg_21" style="fill: rgb(145, 36, 55);"/>
        </g>
        <g fill="#eb1a1a" id="svg_22">
          <path class="st0" d="m335.65445,893.44004l-30.6,43.6l-6.3,-4.4l5.3,-28.2c1,-4.2 2.3,-10 3.3,-13.5l-0.3,0c-2.6,4.7 -6.9,11.4 -9.8,15.5l-11.8,16.8l-6.2,-4.4l30.6,-43.6l6.3,4.4l-5.6,29.3c-0.7,3.8 -2,9 -2.7,12.4l0.3,0c2.5,-4.7 6.7,-11.4 9.4,-15.3l11.9,-17l6.2,4.4z" id="svg_23" style="fill: rgb(145, 36, 55);"/>
        </g>
        <g fill="#eb1a1a" id="svg_24">
          <path class="st0" d="m362.65445,915.44004l-9.9,-5l-20.6,41.1l-7,-3.5l20.6,-41.1l-9.9,-4.9l3.3,-6.5l26.8,13.4l-3.3,6.5z" id="svg_25" style="fill: rgb(145, 36, 55);"/>
        </g>
        <g fill="#eb1a1a" id="svg_26">
          <path class="st0" d="m377.55445,913.04004l-19.3,49.6l-7.2,-2.8l19.3,-49.6l7.2,2.8z" id="svg_27" style="fill: rgb(145, 36, 55);"/>
        </g>
        <g fill="#eb1a1a" id="svg_28">
          <path class="st0" d="m393.45445,962.64004l-13.5,-3.8l-5.3,9.7l-7.8,-2.2l27.4,-47.6l8,2.3l-1.7,54.9l-7.7,-2.2l0.6,-11.1zm0.4,-7.3l0.7,-14.7c0.2,-3.6 0.8,-8.7 1.2,-11.5l-0.2,-0.1c-1.1,2.6 -3.3,7.3 -5,10.4l-7,12.9l10.3,3z" id="svg_29" style="fill: rgb(145, 36, 55);"/>
        </g>
        <g fill="#eb1a1a" id="svg_30">
          <path class="st0" d="m416.25445,971.04004l-7.8,16.6l-4.5,-0.9l5.1,-17.1l7.2,1.4z" id="svg_31" style="fill: rgb(145, 36, 55);"/>
        </g>
        <g fill="#eb1a1a" id="svg_32">
          <path class="st0" d="m442.35445,929.24004l8,0.7l3.8,29.8c0.7,4.8 1,10 1.4,14.3l0.3,0c1.1,-4.2 2.5,-9.3 3.9,-13.9l9,-28.7l8,0.7l-17.7,51.9l-8.3,-0.7l-8.4,-54.1z" id="svg_33" style="fill: rgb(145, 36, 55);"/>
        </g>
        <g fill="#eb1a1a" id="svg_34">
          <path class="st0" d="m488.95445,932.24004l-0.3,53.2l-7.7,-0.1l0.3,-53.2l7.7,0.1z" id="svg_35" style="fill: rgb(145, 36, 55);"/>
        </g>
        <g fill="#eb1a1a" id="svg_36">
          <path class="st0" d="m525.25445,938.84004l-11.1,0.4l1.7,45.9l-7.8,0.3l-1.7,-45.9l-11,0.4l-0.3,-7.3l30,-1.1l0.2,7.3z" id="svg_37" style="fill: rgb(145, 36, 55);"/>
        </g>
        <g fill="#eb1a1a" id="svg_38">
          <path class="st0" d="m552.15445,971.14004l-14,1.7l-1.1,10.9l-8,1l6.8,-54.5l8.2,-1l19.8,51.2l-7.9,1l-3.8,-10.3zm-2.4,-6.9l-5.1,-13.8c-1.2,-3.4 -2.6,-8.3 -3.4,-11.1l-0.2,0c0,2.8 -0.2,8 -0.6,11.6l-1.5,14.6l10.8,-1.3z" id="svg_39" style="fill: rgb(145, 36, 55);"/>
        </g>
        <g fill="#eb1a1a" id="svg_40">
          <path class="st0" d="m615.55445,959.44004l2.1,6.9l-25.7,7.8l-15.6,-50.9l25,-7.6l2.1,6.9l-17.6,5.4l4.5,14.8l16.2,-5l2.1,6.8l-16.2,5l4.8,15.6l18.3,-5.7z" id="svg_41" style="fill: rgb(145, 36, 55);"/>
        </g>
        <g fill="#eb1a1a" id="svg_42">
          <path class="st0" d="m634.15445,908.94004l-10.1,4.6l19.2,41.8l-7.1,3.3l-19.2,-41.8l-10,4.6l-3,-6.6l27.3,-12.5l2.9,6.6z" id="svg_43" style="fill: rgb(145, 36, 55);"/>
        </g>
        <g fill="#eb1a1a" id="svg_44">
          <path class="st0" d="m658.05445,893.24004l9.5,12.7l12.8,-9.6l4.2,5.6l-12.8,9.6l13.9,18.5l-6.2,4.6l-31.9,-42.6l20.1,-15.1l4.3,5.8l-13.9,10.5z" id="svg_45" style="fill: rgb(145, 36, 55);"/>
        </g>
        <g fill="#eb1a1a" id="svg_46">
          <path class="st0" d="m676.95445,867.94004l36.5,38.8l-5.6,5.3l-36.5,-38.8l5.6,-5.3z" id="svg_47" style="fill: rgb(145, 36, 55);"/>
        </g>
        <g fill="#eb1a1a" id="svg_48">
          <path class="st0" d="m683.25445,862.14004l8.5,-10.2c6.6,-7.9 15.2,-8.7 23.3,-2l15.3,12.8c8.1,6.8 8.9,15.4 2.4,23.3l-8.5,10.2l-41,-34.1zm43.8,19.2c3.5,-4.2 3,-8.7 -1.8,-12.7l-15.1,-12.6c-4.8,-4 -9.2,-3.7 -12.8,0.6l-3.6,4.3l29.7,24.8l3.6,-4.4z" id="svg_49" style="fill: rgb(145, 36, 55);"/>
        </g>
        <g fill="#eb1a1a" id="svg_50">
          <path class="st0" d="m759.25445,835.14004l6.1,3.8l-14.1,22.8l-45.3,-28l13.7,-22.2l6.1,3.8l-9.7,15.6l13.1,8.1l8.9,-14.4l6,3.7l-8.9,14.4l13.8,8.6l10.3,-16.2z" id="svg_51" style="fill: rgb(145, 36, 55);"/>
        </g>
        <g fill="#eb1a1a" id="svg_52">
          <path class="st0" d="m756.45445,824.74004l3.3,-7.1c5,2.2 8.7,0.7 10.7,-3.6c2.2,-4.6 0.5,-8.2 -3.4,-10c-9.6,-4.5 -19.5,15.5 -33.9,8.8c-7,-3.3 -9.8,-10.8 -6,-18.9c3.9,-8.3 11.5,-10.8 19.8,-7.2l-3.3,7.1c-4.7,-2 -8,-0.6 -9.8,3.1c-1.8,3.9 -0.7,7.2 2.8,8.8c9.5,4.4 18.9,-15.9 33.8,-8.9c7.2,3.3 11,11.2 6.8,20.3c-4,8.6 -11.9,11.7 -20.8,7.6z" id="svg_53" style="fill: rgb(145, 36, 55);"/>
        </g>
      </g>
      <g fill="#eb1a1a" id="svg_54">
        <g fill="#eb1a1a" id="svg_55">
          <g fill="#eb1a1a" id="svg_56">
            <path class="st0" d="m157.65445,1338.24004l0.5,7.1c0.2,2.2 0.3,3.6 0.3,4.4l-1.3,0.2c-2.1,-4.7 -4.7,-8.2 -7.7,-10.6c-3.1,-2.3 -6.9,-3.5 -11.3,-3.5c-5.5,0 -9.7,0.7 -12.7,2c-4.4,1.9 -8.2,5.2 -11.3,9.8c-3.1,4.7 -4.7,10.3 -4.7,16.9c0,3.8 0.6,7.3 1.7,10.3c1.2,3.1 2.8,5.8 4.9,8.5c2.1,2.6 4.6,4.9 7.4,6.8c1.9,1.3 4.1,2.2 6.7,2.9c1.4,0.4 3.6,0.5 6.5,0.5c1.9,0 3.9,-0.2 6.2,-0.8c2.3,-0.5 4,-1.2 5.1,-2.1c1.1,-0.8 1.9,-1.9 2.4,-3c0.4,-1.1 0.6,-3.3 0.6,-6.5c0,-5.3 -0.4,-8.5 -1.1,-9.3c-0.7,-0.9 -3,-1.5 -6.7,-1.8l-1.9,-0.1l-1.3,0c-0.2,0 -0.4,-0.1 -0.8,-0.1l-0.7,-1.2c0,-0.1 0.2,-0.3 0.4,-0.6c1.6,-0.3 5.1,-0.4 10.5,-0.4c1.2,0 3.1,0.1 5.9,0.1l4.8,0.2l4.3,0c0.8,0 1.8,0 3,0.1c0.2,0 0.3,0.1 0.4,0.1c0.1,0.1 0.1,0.2 0.1,0.4c0,0.4 -0.1,0.8 -0.2,1.3c-1.3,0.3 -2.3,0.4 -3,0.4l-3,-0.1c-1,0 -1.8,0.3 -2.5,1.1c-0.3,0.4 -0.5,1.5 -0.5,3.5l0,6.1c0,4.2 -0.1,6.8 -0.5,8c-0.2,0.7 -0.6,1.3 -1.2,1.8c-0.6,0.6 -1.8,1.2 -3.7,1.9c-2.7,1.1 -5.2,1.8 -7.4,2.2c-4.1,0.7 -8.1,1.1 -11.8,1.1c-6.1,0 -11.2,-0.8 -15.1,-2.3c-3.9,-1.5 -7.3,-3.7 -10.1,-6.5c-2.8,-2.8 -4.8,-5.6 -6.1,-8.5c-1.9,-4.2 -2.7,-8.4 -2.7,-12.8c0,-5.4 1.4,-10.7 4.3,-15.9c2.8,-5.2 7.5,-9.4 13.9,-12.7c4.5,-2.3 10.6,-3.4 18.3,-3.4c5.3,0 9.7,0.4 13,1.3c3.5,1 6.2,2 8.1,3.2m14.1,55c4.5,-0.5 7,-0.9 7.6,-1.1c0.4,-0.2 0.8,-0.6 1.1,-1.4l0,-0.5c0,-0.8 0.1,-3.6 0.4,-8.4c0,-1.4 0.1,-2.7 0.1,-4l-0.1,-5.6l0.1,-6.2l0,-11.7l0,-8.4c0,-3.5 -0.3,-5.7 -0.8,-6.4c-0.6,-0.8 -2.1,-1.4 -4.4,-1.7c-2.4,-0.3 -3.7,-0.6 -4,-0.7c-0.3,-0.2 -0.4,-0.4 -0.4,-0.7c0,-0.2 0.1,-0.5 0.2,-0.9c0.3,-0.3 1,-0.4 2.1,-0.4c0.1,0 0.6,-0.1 1.3,-0.1c0.7,-0.1 1.4,-0.1 2,-0.1l3.8,0l12.2,-0.1c6.9,0 11.7,0.5 14.5,1.5c2.8,1 4.9,2.8 6.6,5.2c1.6,2.4 2.5,5.2 2.5,8.1c0,5.7 -3,10.1 -9,13c-1,0.6 -1.8,1 -2.4,1.4c1,2.2 2.5,4.9 4.4,8l5.9,10.1c2.3,3.7 4,6.1 4.9,7c0.9,0.9 2,1.7 3.3,2.3c1.3,0.6 3.4,1.2 6.5,1.8c0,0.3 0,0.5 0,0.7c0,0.2 0,0.4 0,0.7c-4.3,0.1 -9.2,0.1 -14.9,0.1c-0.4,0 -1,0 -1.7,-0.1c-2.2,-4.2 -4.8,-8.8 -7.8,-13.9l-6.9,-12.5c-0.9,-1.3 -1.7,-2.1 -2.3,-2.5c-0.6,-0.3 -1.4,-0.5 -2.4,-0.5l-3.9,0.1l-1.3,-0.1c-0.1,1 -0.1,3 -0.1,6.1l0,15.9c0,0.6 0.1,1.4 0.4,2.4c0.3,0.6 0.7,1.1 1.3,1.5c0.6,0.3 2.4,0.9 5.3,1.6l1.9,0.5c0.3,0.3 0.4,0.7 0.4,1.2c-0.8,0.2 -1.4,0.2 -1.8,0.2c-2.8,0 -4.7,0 -5.9,-0.1c-0.6,0 -1.1,0 -1.4,0l-6.3,0.1l-6.2,0c-0.3,0 -1.7,0 -4.2,0.1l-0.9,-0.2l-0.1,-0.5c-0.3,-0.1 -0.1,-0.5 0.4,-0.8m17.2,-30.4c0.8,0 1.4,0.1 1.9,0.1c2.2,0 4.8,-0.2 7.7,-0.8c2.1,-0.4 3.7,-1.1 5,-2c1.3,-0.9 2.3,-2.2 3.2,-4c0.9,-1.8 1.3,-3.6 1.3,-5.5c0,-2.1 -0.6,-4.3 -2,-6.7c-1.1,-1.8 -2.8,-3.3 -5.2,-4.5c-2.5,-1.2 -5.4,-1.8 -8.8,-1.8c-0.9,0 -1.9,0 -3.2,0.1c-0.2,1.6 -0.2,2.8 -0.2,3.7l0.2,8.7l0,3.6c-0.1,2.3 0,5.3 0.1,9.1m66.7,-27.8c0.2,0.5 0.2,0.9 0.2,1.2c0,0.2 0,0.5 -0.1,0.8c-0.8,0.3 -1.4,0.3 -2,0.3c-0.2,0 -0.5,0 -1.1,-0.1c-0.5,0 -0.9,0 -1.2,0c-1.4,0 -2.5,0.3 -3.4,0.8c-0.6,0.4 -0.9,0.8 -1,1.4l-0.5,5.3l0.1,23c0,8.4 0.3,13.7 0.8,15.7c0.5,2.1 1.4,3.8 2.7,5.1c1.2,1.3 3.1,2.5 5.6,3.3c2.5,0.9 4.9,1.3 7.3,1.3c5.3,0 9.3,-0.8 12.1,-2.3c2.8,-1.5 4.8,-3.6 6,-6.3c1.2,-2.7 1.8,-6.8 1.8,-12.2c0,-0.2 0,-1.4 -0.1,-3.7l0,-1.3c0,-0.5 0,-1.5 0.1,-2.9c0.1,-1.4 0.1,-2.3 0.1,-2.5l-0.7,-13.4c-0.2,-4.5 -0.5,-7.1 -0.8,-7.9c-0.3,-0.8 -0.7,-1.4 -1.3,-1.8c-1.2,-0.9 -3.5,-1.7 -6.9,-2.3c-0.1,-0.4 -0.2,-0.9 -0.3,-1.4c1.2,-0.1 2.4,-0.2 3.6,-0.2c1.2,0 2.5,0 3.9,0.2c2,0.1 3.1,0.2 3.3,0.2l7.4,-0.2l1.4,0l-0.1,1.7c-3.8,0.5 -6.1,1.1 -6.8,1.7c-0.7,0.7 -1.1,1.9 -1.1,3.7c0,1 0.1,3.1 0.2,6.3l0.3,9.6l0,3.8l0.1,4.8c0,6.1 -0.2,10.2 -0.5,12.4c-0.5,3 -1.2,5.5 -2.1,7.3c-0.9,1.8 -2.2,3.4 -4,4.8c-1.8,1.5 -4,2.7 -7,3.6c-2.9,0.9 -5.7,1.4 -8.5,1.4c-4.4,0 -7.6,-0.3 -9.6,-0.9c-3.6,-1.1 -6.4,-2.5 -8.5,-4.3c-2.1,-1.7 -3.6,-3.5 -4.4,-5.2c-1.1,-2.3 -1.6,-5.6 -1.6,-10.1l0,-3.2l-0.1,-12.9l0.1,-10.5l0,-7.1c0,-1.8 -0.2,-3 -0.7,-3.8c-0.4,-0.5 -0.9,-0.8 -1.5,-0.8l-2.8,0.1c-2,0 -3.3,-0.2 -3.9,-0.6c-0.1,-0.3 -0.2,-0.5 -0.2,-0.7c0,-0.3 0.1,-0.5 0.3,-0.7c0.3,-0.2 0.8,-0.3 1.3,-0.3l1.2,0l3.1,-0.1l7.4,0l12.4,-0.1zm42.3,0.3c0.5,-0.1 0.9,-0.1 1.1,-0.1c1,0 2.8,0 5.2,0.2c1.3,0 2.2,0 2.6,0c0.6,0 2.1,0 4.3,-0.2l7.9,-0.5c2.1,-0.2 4.5,-0.3 7.2,-0.3c4.9,0 8.7,0.7 11.6,2.1c2.9,1.4 5.1,3.5 6.6,6.5c1.6,3 2.3,5.9 2.3,8.8c0,4.8 -1.7,9 -5.1,12.5c-3.4,3.5 -8,5.3 -13.8,5.3c-1.6,0 -3,-0.2 -4,-0.5c-1.1,-0.3 -2.3,-0.9 -3.7,-1.9c-0.6,-0.4 -1,-0.8 -1.1,-1.3c0.1,-0.2 0.3,-0.4 0.5,-0.5c0.4,0 0.9,0.1 1.3,0.3c1.1,0.4 2.4,0.5 4,0.5c2.5,0 4.8,-0.6 6.9,-1.8c2.2,-1.2 3.8,-2.9 5,-5.1c1.1,-2.3 1.7,-4.6 1.7,-7c0,-2.4 -0.6,-4.8 -1.8,-7c-1.2,-2.3 -2.7,-4.1 -4.6,-5.5c-1,-0.8 -2.7,-1.4 -5,-2c-2.3,-0.5 -4,-0.8 -5.2,-0.8c-3.9,0 -6.1,0.3 -6.8,0.8l-0.1,0.7l0.2,5.2l0,1c0,0.8 -0.1,2.1 -0.1,3.8c0,6.3 0.1,10.3 0.3,11.8l0,2.6l0.6,21.2c0,0.3 0,0.9 -0.1,1.8c-0.1,0.8 -0.1,1.6 -0.1,2.2c0,1.5 0.1,2.6 0.4,3.4c0.8,0.2 3,0.7 6.5,1.5c1.6,0.4 2.6,0.7 2.7,0.7c0.3,0.1 0.4,0.3 0.6,0.6c-0.1,0.5 -0.3,0.8 -0.5,0.9c-0.2,0.1 -0.6,0.2 -1.2,0.2c-0.4,0 -1.3,-0.1 -2.6,-0.2c-2.7,-0.3 -4.8,-0.4 -6.3,-0.4l-8.1,0.3l-4.9,-0.1c-0.3,0 -1.2,0.1 -2.7,0.1l0,-1.2l6.1,-1.2c1,-0.3 1.6,-0.6 1.8,-0.8c0.3,-0.4 0.5,-1.3 0.5,-2.5c0,-0.3 0,-0.9 0,-1.8c0,-0.7 0,-1.6 0,-2.7c0,-3.7 -0.2,-11.4 -0.5,-23.3c-0.1,-5.6 -0.2,-11.2 -0.2,-17l0,-0.8c0,-2.2 -0.4,-3.6 -1,-4.2c-1.1,-1.1 -4,-1.9 -8.6,-2.5c-0.1,-0.4 -0.2,-0.6 -0.2,-0.8c0.1,-0.3 0.2,-0.6 0.4,-1m55.8,29.6c0,-3.2 0.4,-6 1.1,-8.4c0.8,-2.5 2,-5.1 3.8,-8c1.8,-2.9 4,-5.3 6.5,-7.2c2.6,-1.9 6,-3.7 10.6,-5.1c3.2,-1 7.1,-1.6 12,-1.6c3.3,0 6.4,0.5 9.5,1.3c3.1,0.9 5.9,2.1 8.5,3.7c2.5,1.5 5.1,3.9 7.6,7.2c1.8,2.2 3.1,4.6 4,7.2c1.2,3.4 1.8,6.9 1.8,10.5c0,4.1 -0.4,7.5 -1.1,10.2c-0.8,2.7 -2.1,5.3 -4,8c-1.5,2.1 -4,4.4 -7.5,7.1c-2.4,1.8 -5.3,3.2 -8.8,4.3c-3.5,1.1 -7.3,1.7 -11.3,1.7c-4.1,0 -7.8,-0.5 -11,-1.4c-3.2,-0.9 -5.9,-2.1 -8,-3.5c-2.2,-1.4 -4.4,-3.4 -6.7,-6.1c-2.3,-2.7 -4,-5.6 -5.2,-8.9c-1.2,-3.6 -1.8,-7.2 -1.8,-11m32.3,28.9c2.6,0 5.3,-0.4 8.1,-1.1c2.8,-0.7 5.3,-1.9 7.5,-3.7c2.1,-1.7 3.9,-3.6 5.1,-5.7c1.2,-2.2 2.2,-5 2.9,-8.3c0.8,-3.4 1.1,-6.8 1.1,-10.2c0,-4.2 -0.6,-8.4 -1.8,-12.5c-1,-3.2 -2.5,-5.9 -4.7,-8.4c-2.2,-2.5 -4.8,-4.3 -7.8,-5.7c-3.1,-1.4 -6.3,-2.1 -9.8,-2.1c-2.8,0 -5.6,0.5 -8.3,1.4c-2.7,0.9 -4.9,2.1 -6.7,3.6c-1.7,1.4 -3.3,3.5 -4.8,6.1c-1.5,2.7 -2.6,5.6 -3.4,8.8c-0.8,3.2 -1.2,6 -1.2,8.4c0,2.6 0.4,5.4 1.2,8.7c0.8,3.3 1.8,6.1 3.2,8.5c1.3,2.4 3,4.5 5,6.3c2,1.9 4.2,3.3 6.7,4.2c2.3,1.2 4.8,1.7 7.7,1.7" id="svg_57" style="fill: rgb(145, 36, 55);"/>
            <path class="st0" d="m448.65445,1394.34004l0.1,-3.2c3.9,-0.5 6.3,-1.3 7.4,-2.4c0.7,-0.7 1.2,-2.7 1.6,-5.8l0.6,-16.6l0.7,-16.9c0,-1 0.1,-1.6 0.1,-1.9c0,-4.3 -0.2,-6.9 -0.8,-7.6c-0.5,-0.7 -2.5,-1.3 -6,-2c-0.9,-0.2 -1.6,-0.3 -2.1,-0.5c-0.1,-0.8 -0.1,-1.4 -0.1,-1.9l0,-1.5c1.2,0 2.5,-0.1 4.1,-0.1l13.6,0.5c0.3,0.1 0.7,0.1 1.3,0.1l2.2,0.1c0.5,0.6 1,1.5 1.6,2.4c1.1,2.3 2.6,5.6 4.5,10l0.5,1.3l7.2,15.8c0.2,0.4 0.5,0.9 0.8,1.7c0.5,1.1 1,2.2 1.5,3.1c0.5,1 1,2.1 1.5,3.4c0.6,1.2 1.1,2.3 1.5,3.2c0.4,-0.8 0.9,-1.6 1.3,-2.4c1.3,-2.8 2.4,-5.4 3.6,-7.9c2,-4.2 4.8,-10.7 8.3,-19.4c0.5,-1.4 1.5,-3.5 2.8,-6.3c1.3,-2.9 2,-4.3 2.1,-4.5c0.3,-0.2 0.8,-0.4 1.7,-0.4c0.3,0 0.8,0 1.4,0c1.6,-0.1 3.6,-0.2 5.8,-0.3c3.3,0 5.8,-0.1 7.8,-0.3c2,-0.2 3.1,-0.3 3.3,-0.3c0.3,0 0.7,0 1.1,0.1c0,0.4 0,0.8 0,1l-0.1,1.4c0,0.3 0,0.7 0,1.3c-3,0.4 -5.3,1.1 -7.1,1.9c-1.3,0.6 -1.9,1.4 -1.9,2.3l0,0.7l0.8,14.2c0.1,1.3 0.3,7.8 0.8,19.4c0.1,2.6 0.3,5.8 0.6,9.9c0.1,0.5 0.1,0.9 0.1,1.2c0,0.8 0.2,1.2 0.5,1.4c0.3,0.2 3.1,1.1 8.4,2.7c0,0.5 0,0.8 0,1.1c0,0.7 0,1.3 0,1.9c-0.8,0 -3,-0.1 -6.3,-0.5c-3.4,-0.4 -6.5,-0.5 -9.5,-0.5c-4.5,0 -8.8,0.1 -13.1,0.5c-0.5,0.1 -1.1,0.1 -1.6,0.2l0.1,-3.2c1.3,-0.5 3,-1 5.1,-1.3c1.5,-0.2 2.4,-0.7 2.8,-1.3c0.4,-0.6 0.6,-2.2 0.6,-4.9c0,-1 0,-1.9 -0.1,-2.7c-0.2,-3.3 -0.3,-7.8 -0.3,-13.5l-0.8,-16.5c-0.1,-2.3 -0.2,-3.9 -0.3,-4.8l-11.6,26.6c-0.3,0.6 -0.7,1.5 -1.2,2.7c-0.7,1.5 -1.2,2.6 -1.4,3.1c-2.4,5.8 -4.1,10.1 -5,13.2c-0.3,0.8 -0.6,1.8 -1.1,3.1l-3.6,-0.1l-2.5,-7.1c-0.8,-1.9 -2,-4.7 -3.8,-8.5c-1.1,-2.2 -1.9,-4 -2.5,-5.3c-0.3,-0.6 -0.5,-1 -0.6,-1.3l-0.6,-1.2c0,-0.2 -0.1,-0.3 -0.2,-0.4l-6.9,-14.9l-4.2,-9.1l-0.4,22l-0.3,14.3c0,2.4 0.5,4 1.3,5c0.9,1 2.8,1.9 5.7,2.6l2.2,0.6l0,3.4c-1.8,0 -3.8,-0.2 -5.8,-0.4c-2,-0.2 -4.8,-0.3 -8.2,-0.3c-0.6,0.2 -3.7,0.3 -9,0.6m83.7,0l0.8,0c2.1,0 4.3,-0.2 6.6,-0.5l1.9,-0.4c7.3,0.5 11.8,0.8 13.8,0.8c0.1,-0.4 0.1,-0.7 0.1,-1.1c0,-0.4 0,-1.2 -0.1,-2.3c-1.9,-0.3 -3,-0.4 -3.3,-0.5c-2,-0.2 -3.3,-0.6 -4.1,-1.2c-0.4,-0.3 -0.6,-0.9 -0.6,-1.7c0,-0.6 0.3,-1.7 0.9,-3.3c2.1,-5.8 3.4,-9.5 4.1,-11l17.8,0l3.7,9.1l1.8,4.6c0.2,0.4 0.2,0.8 0.2,1.3c0,0.4 -0.2,0.8 -0.4,1.1c-0.3,0.2 -1.2,0.5 -2.7,0.9l-5.2,1.1c-0.1,1 -0.1,2.1 -0.1,3.1l2.3,-0.1l7.9,-0.4c1.1,-0.1 2.9,-0.2 5.3,-0.2c2.2,0 4.7,0.2 7.5,0.3c2.7,0.2 5.3,0.3 7.6,0.3c0,-0.5 0,-0.8 0,-1c0,-0.5 -0.1,-1.3 -0.3,-2.3c-1.5,-0.6 -2.8,-1 -4.1,-1.1c-1.2,-0.1 -2.1,-0.5 -2.7,-0.9c-0.3,-0.2 -0.8,-0.9 -1.4,-2.3c-1.2,-2.4 -2,-4.3 -2.5,-6c-1.1,-2.9 -2,-5.1 -2.6,-6.6c-1.1,-2.4 -2.3,-5.6 -3.8,-9.4c-1.5,-3.9 -3.1,-7.8 -5,-11.9l-8.1,-19.2l-0.4,-0.8l-2.2,0l-2.9,0l-11,28.9l-9.4,24.7c-0.7,1.4 -1.4,2.3 -1.9,2.7c-0.5,0.4 -2,0.8 -4.3,1.3c-1.5,0.3 -2.5,0.5 -3.1,0.7l-0.1,3.3zm22,-26.2l6.7,-18c0.9,2 2.1,4.7 3.6,8.4c1.5,3.7 2.7,6.9 3.7,9.7l-1.2,0.1c-1.4,0 -5.6,-0.1 -12.8,-0.2m45.8,23.4c-0.1,0.6 -0.1,1.1 -0.1,1.4c0,0.2 0,0.7 0.1,1.5l2,0c1.6,0 3.4,-0.1 5.4,-0.3l6.4,-0.4c0.4,0 1,0 1.8,0c1.3,0 5.2,0.3 11.9,0.9l1.9,-0.1c0.2,0 0.5,0 1.1,0c0.1,-0.8 0.2,-1.9 0.2,-3.4c-1.8,-0.7 -3.8,-1.3 -6.3,-1.8c-1.4,-0.3 -2.5,-0.7 -3.4,-1.2l0.3,-8.8l-0.2,-10.3c0,-1.2 0,-2.3 0.1,-3.2c1.5,-0.1 2.5,-0.1 3.2,-0.1c2.3,0 3.9,0.3 4.8,1c0.6,0.4 1.7,2.2 3.3,5.2c3.3,6.6 5.6,11.4 7,14.4c0.5,1.1 1.4,2.9 2.8,5.2l1.5,3.1c0.5,-0.1 1.2,-0.1 2,-0.2c1.8,-0.2 2.9,-0.3 3.2,-0.3l4.7,0.1c1.4,0 2.7,0.1 3.7,0.2l1.9,0l2.4,0.3l0.9,-0.1l1.3,0c0,-0.4 0,-0.8 0,-1.1c0,-0.4 -0.1,-0.9 -0.3,-1.4c-0.7,-0.5 -1.8,-1.1 -3.2,-1.6c-1.8,-0.7 -3,-1.3 -3.5,-1.8c-0.6,-0.5 -1.8,-2.4 -3.7,-5.6l-7.4,-12.1c-0.8,-1.3 -1.9,-2.9 -3.2,-4.8c-0.6,-0.8 -1.1,-1.6 -1.5,-2.3c4.2,-1.3 7.3,-3.2 9.4,-5.8c2,-2.6 3,-5.4 3,-8.5c0,-4.2 -1.9,-7.9 -5.7,-11.2c-3.7,-3.2 -8.8,-4.9 -15.2,-4.9c-4,0 -7.9,0.2 -11.5,0.6l-5.8,0.3l-2.5,0.1c-0.2,0 -1.4,-0.1 -3.7,-0.3c-2.2,0 -3.6,0.1 -4.3,0.1c-1.3,0 -2.8,0.1 -4.3,0.4l-0.2,0.5l0.1,2.8c0.8,0.1 2.5,0.3 5,0.5l2.8,0.6c0.2,1.8 0.2,5.9 0.2,12.4c0,3 0,6.1 -0.1,9.5l-0.1,2.5l0.1,4.3l-0.2,5.6l0,10.4c0,2.5 0,4.1 -0.1,4.5c0,0.3 -0.1,0.7 -0.2,1.4c-1.3,0.5 -2.7,0.8 -4.3,1c-1.5,0 -2.7,0.3 -3.5,0.8m21,-30.2l0,-1.3c0,-2.3 0,-4.1 0.1,-5.5l0,-5.1l0.1,-3.8l-0.1,-6.3l0.1,-0.9c1,-0.2 2.2,-0.3 3.7,-0.3c3,0 5.2,0.3 6.5,0.7c1.8,0.6 3.3,1.6 4.5,2.8c0.8,0.8 1.5,2.1 2,3.8c0.5,1.7 0.8,3.6 0.8,5.5c0,3.2 -1.1,5.7 -3.3,7.6c-2.2,1.9 -5.9,2.8 -11.2,2.8c-0.7,0.1 -1.8,0 -3.2,0m45.4,33c0.6,-0.1 2,-0.1 4,-0.3c3.2,-0.3 5.5,-0.5 7.2,-0.5l8.2,0.1c3.7,0.4 5.8,0.6 6.2,0.7c0.6,0.1 1,0.1 1.2,0.1c0.1,0 0.7,0 1.7,-0.1c0.2,-0.1 0.5,-0.1 0.9,-0.1c0,-0.7 0,-1.3 0,-1.6c0,-0.6 -0.1,-1.4 -0.2,-2.3c-1.6,-0.3 -2.6,-0.4 -2.8,-0.4c-1.6,-0.2 -3.3,-0.5 -5.2,-0.8c-0.2,-0.5 -0.3,-0.8 -0.3,-1.1l0.1,-1.8l-0.1,-9.3l0.2,-6.2l-0.1,-12.3c0,-2.8 0.1,-6.9 0.2,-12.1c-0.1,-0.9 -0.2,-2 -0.2,-3.3c0,-1.5 0.1,-2.7 0.3,-3.5c1,-0.4 2.4,-0.8 3.9,-1.2c1.6,-0.4 3,-0.8 4.2,-1.2c0.1,-0.8 0.1,-1.5 0.1,-2c0,-0.4 0,-1 -0.1,-1.5c-0.6,0 -2,0.1 -4.3,0.2c-4,0.3 -7,0.4 -8.8,0.4c-0.4,0 -1.4,0 -3.1,-0.1l-13.3,-0.5l0.1,4.1c0.3,0.1 0.9,0.1 1.6,0.2c2.9,0.1 4.9,0.5 6.2,1.1c0.2,0.7 0.3,1.2 0.3,1.5l0.1,2l0.3,5.2l-0.1,2.6l0.1,6.2c0,0.2 -0.1,3.3 -0.4,9.5l0,2.5l-0.1,10.7l0.1,5.4c0,1.7 -0.3,3.1 -0.8,4c-1,0.5 -2.5,1.1 -4.5,1.5c-1.4,0.3 -2.5,0.6 -3,0.8l0.2,3.4l0,0zm73.2,-58.9c-2.9,-1 -5.2,-1.7 -7,-1.9c-2.9,-0.5 -5.1,-0.8 -6.6,-0.8c-6.9,0 -12.2,1.8 -15.7,5.2c-3.5,3.5 -5.3,7.6 -5.3,12.6c0,2.4 0.6,5 1.9,7.7c1.3,2.7 3,4.8 5.2,6.4c2.2,1.6 6.2,3.4 11.9,5.4c5.7,2 9.2,3.6 10.5,4.8c2.2,2 3.3,4.1 3.3,6.3c0,1.9 -0.6,3.7 -1.8,5.3c-1.3,1.7 -2.9,2.8 -4.9,3.5c-2,0.7 -3.8,1.1 -5.5,1.1c-1.8,0 -3.6,-0.2 -5.3,-0.8c-1.6,-0.6 -3,-1.4 -4.2,-2.3c-1.1,-1 -2.2,-2.3 -3.2,-3.9c-0.4,-0.7 -1.4,-2.8 -2.9,-6.3l-4.3,0.1l0,1.7c0,0.9 0,2.3 0.1,4.3c0.2,3.9 0.3,6.1 0.3,6.4l0,0.5c0.1,0.4 0.3,0.8 0.4,0.9c0.4,0.4 1.4,0.7 2.9,1.2l5.6,1.7c3,0.6 5.6,0.9 7.8,0.9c3.3,0 6,-0.3 8.1,-0.8c2.1,-0.6 4.1,-1.5 6.1,-2.7c2,-1.3 3.4,-2.4 4.3,-3.3c1.3,-1.3 2.3,-2.7 2.8,-4.3c1.1,-2.8 1.6,-5.7 1.6,-8.6c0,-2.7 -0.4,-4.9 -1,-6.7c-0.7,-1.8 -2,-3.7 -3.8,-5.6c-1.4,-1.5 -3.5,-2.8 -6.1,-4.1c-2.7,-1.2 -5,-2.1 -6.9,-2.7c-5.7,-1.7 -9.3,-3.4 -11.1,-5.3c-1.8,-1.8 -2.6,-3.7 -2.6,-5.7c0,-2.3 0.8,-4.3 2.6,-5.9c1.8,-1.6 4.2,-2.4 7.3,-2.4c3.2,0 6,1.2 8.3,3.7c1.3,1.4 2.8,4.2 4.1,8.3l0.6,0.1l3.3,0.2l0.5,-0.1c0.1,-0.7 0.2,-1.3 0.2,-1.8c0,-1.8 -0.2,-4.3 -0.5,-7.5c-0.4,-2.1 -0.6,-3.8 -1,-4.8m14.4,-3.9c-0.3,0.6 -0.6,1.8 -1.1,3.6c-1.7,6 -3,10 -4,12.1c0.4,0.5 1.3,1.1 2.8,1.8c0.4,0 0.9,-0.5 1.7,-1.5c2.7,-3.5 4.7,-5.6 6,-6.4c1,-0.5 2.9,-0.8 5.9,-0.8c5.3,0 8.4,0.1 9.4,0.2c0.3,0 0.5,0.1 0.7,0.3c0.1,0.1 0.3,0.3 0.4,0.6c0.2,1 0.3,3.9 0.3,8.8l0.3,17.6c0,8.1 -0.1,14.1 -0.3,17.8c-0.1,1 -0.3,1.7 -0.5,2.3c-1.2,0.7 -3.5,1.3 -6.7,2.1c-1.9,0.4 -3.2,1.1 -3.9,2l0,0.4l0,1.1c0,0.2 0.1,0.6 0.1,1.1c0.5,0 1.7,-0.1 3.4,-0.2c4.5,-0.4 7.3,-0.5 8.2,-0.5c5.9,0 9.9,0.1 12.2,0.3c2.2,0.2 5,0.3 8.1,0.3c0.5,0 1,0 1.7,0c0.1,-0.6 0.2,-0.9 0.2,-1.2c0,-0.2 -0.1,-0.9 -0.2,-2.1c-0.8,-0.3 -1.6,-0.5 -2.5,-0.7c-2.1,-0.5 -3.2,-0.7 -3.5,-0.8c-1.3,-0.2 -2.3,-0.4 -2.7,-0.6c-0.4,-1.1 -0.6,-2.7 -0.6,-4.8l0,-6.1l-0.2,-14.8l0,-13.7l-0.1,-6.2c0,-0.8 0.1,-1.7 0.3,-3c1.3,-0.1 2.4,-0.2 3.3,-0.2c5.9,0 9.1,0.1 9.9,0.2c0.5,0.1 0.9,0.4 1.3,0.8c0.3,0.3 0.8,1.5 1.8,3.8c1,2.3 1.8,4 2.6,5.3c1,-0.1 2.1,-0.4 3.4,-0.8c0.1,-0.5 0.2,-1.3 0.2,-2.1l0.1,-2.4l-0.1,-4.2c0,-4.3 0,-7.5 -0.1,-9.7c-0.6,0 -1,-0.1 -1.4,-0.1l-2.1,0.1c-0.2,0.5 -0.4,0.9 -0.5,1.2c-0.5,1.2 -0.9,2 -1.3,2.3l-2.7,0.4l-14.4,0l-10.5,0l-5.7,0l-1,0.1c-1.9,0 -4,0 -6.4,0c-3.8,0 -6,0 -6.4,-0.1c-0.4,-0.5 -1.1,-1.5 -2,-3c-0.1,-0.2 -0.2,-0.4 -0.5,-0.7l-2.9,0.1l0,0zm52.2,62.8l0.8,0c2.1,0 4.3,-0.2 6.6,-0.5l1.9,-0.4c7.3,0.5 11.9,0.8 13.8,0.8c0.1,-0.4 0.1,-0.7 0.1,-1.1c0,-0.4 0,-1.2 0,-2.3c-1.9,-0.3 -3,-0.4 -3.3,-0.5c-2,-0.2 -3.4,-0.6 -4.1,-1.2c-0.4,-0.3 -0.6,-0.9 -0.6,-1.7c0,-0.6 0.3,-1.7 0.9,-3.3c2.1,-5.8 3.4,-9.5 4.1,-11l17.8,0l3.6,9.1l1.8,4.6c0.2,0.4 0.2,0.8 0.2,1.3c0,0.4 -0.1,0.8 -0.5,1.1c-0.2,0.2 -1.1,0.5 -2.7,0.9l-5.2,1.1c-0.1,1 -0.1,2.1 -0.1,3.1l2.3,-0.1l7.9,-0.4c1.1,-0.1 2.9,-0.2 5.3,-0.2c2.2,0 4.7,0.2 7.5,0.3c2.8,0.2 5.3,0.3 7.6,0.3c0,-0.5 0,-0.8 0,-1c0,-0.5 -0.1,-1.3 -0.2,-2.3c-1.5,-0.6 -2.8,-1 -4.1,-1.1c-1.2,-0.1 -2.1,-0.5 -2.7,-0.9c-0.3,-0.2 -0.8,-0.9 -1.4,-2.3c-1.2,-2.4 -2,-4.3 -2.6,-6c-1.1,-2.9 -2,-5.1 -2.6,-6.6c-1,-2.4 -2.3,-5.6 -3.8,-9.4c-1.5,-3.9 -3.1,-7.8 -5,-11.9l-8.1,-19.2l-0.4,-0.8l-2.1,0l-2.9,0l-11,28.9l-9.4,24.7c-0.7,1.4 -1.4,2.3 -1.9,2.7c-0.5,0.4 -2,0.8 -4.3,1.3c-1.5,0.3 -2.5,0.5 -3.1,0.7l-0.1,3.3zm21.9,-26.2l6.8,-18c0.9,2 2.1,4.7 3.6,8.4c1.5,3.7 2.7,6.9 3.7,9.7l-1.2,0.1c-1.3,0 -5.6,-0.1 -12.9,-0.2" id="svg_58" style="fill: rgb(145, 36, 55);"/>
          </g>
          <g fill="#eb1a1a" id="svg_59">
            <rect x="101.15445" y="1268.84006" class="st0" width="772" height="4.4" id="svg_60" style="fill: rgb(145, 36, 55);"/>
          </g>
        </g>
      </g>
      <g fill="#eb1a1a" id="svg_61">
        <g fill="#eb1a1a" id="svg_62">
          <path class="st0" d="m487.15445,149.94004c4.4,3 38.6,25.3 65.8,-1.1c0.8,-0.8 0.8,-2.1 0,-2.9c-5.5,-5.2 -25.9,-23.8 -49.9,-38.5c-0.3,-0.1 -0.4,-0.4 -0.4,-0.7l0,-35.7c0,-0.5 0.4,-0.8 0.8,-0.8l27.5,0c1.1,0 2,-0.9 2,-2l0,-27.7c0,-1.1 -0.9,-2 -2,-2l-27.5,0c-0.5,0 -0.8,-0.4 -0.8,-0.8l0,-34.2c0,-1.1 -0.9,-2 -2,-2l-27.7,0c-1.1,0 -2,0.9 -2,2l0,34.2c0,0.5 -0.4,0.8 -0.8,0.8l-27.5,0c-1.1,0 -2,0.9 -2,2l0,27.7c0,1.1 0.9,2 2,2l27.5,0c0.5,0 0.8,0.4 0.8,0.8l0,35.7c0,0.3 -0.2,0.6 -0.4,0.7c-24,14.7 -44.4,33.3 -49.9,38.5c-0.8,0.8 -0.9,2.1 0,2.9c27.2,26.4 61.4,4.2 65.8,1.1c0,-0.2 0.4,-0.2 0.7,0z" id="svg_63" style="fill: rgb(145, 36, 55);"/>
        </g>
        <g fill="#eb1a1a" id="svg_64">
          <path class="st0" d="m487.05445,227.34004c5.5,3 66.3,35.2 111.5,-1.9c0.7,-0.6 0.9,-1.5 0.6,-2.4c-2,-4.5 -9,-19.3 -20.5,-37c-0.4,-0.6 -1,-0.9 -1.7,-0.9l-180.6,0c-0.7,0 -1.3,0.4 -1.7,0.9c-11.5,17.7 -18.5,32.5 -20.5,37c-0.4,0.8 -0.1,1.8 0.6,2.4c45.2,37 106,4.9 111.5,1.9c0.2,-0.2 0.5,-0.2 0.8,0z" id="svg_65" style="fill: rgb(145, 36, 55);"/>
        </g>
      </g>
      <g fill="#eb1a1a" id="svg_66">
        <g fill="#eb1a1a" id="svg_67">
          <path class="st0" d="m571.75445,550.04004l-73.9,43.2c-1.3,0.8 -2.9,-0.2 -2.9,-1.7l0,-80.4c0,-0.7 0.4,-1.3 1,-1.7l73.9,-43.2c1.3,-0.8 2.9,0.2 2.9,1.7l0,80.4c0,0.7 -0.4,1.3 -1,1.7z" id="svg_68" style="fill: rgb(145, 36, 55);"/>
        </g>
        <g fill="#eb1a1a" id="svg_69">
          <path class="st0" d="m401.55445,550.04004l73.9,43.2c1.3,0.8 2.9,-0.2 2.9,-1.7l0,-80.4c0,-0.7 -0.4,-1.3 -1,-1.7l-73.9,-43.2c-1.3,-0.8 -2.9,0.2 -2.9,1.7l0,80.4c0,0.7 0.4,1.3 1,1.7z" id="svg_70" style="fill: rgb(145, 36, 55);"/>
        </g>
        <g fill="#eb1a1a" id="svg_71">
          <path class="st0" d="m630.15445,690.64004l-132.3,77.3c-1.3,0.8 -2.9,-0.2 -2.9,-1.7l0,-153.6c0,-0.7 0.4,-1.3 1,-1.7l132.3,-77.3c1.3,-0.8 2.9,0.2 2.9,1.7l0,153.7c0,0.6 -0.4,1.2 -1,1.6z" id="svg_72" style="fill: rgb(145, 36, 55);"/>
        </g>
        <g fill="#eb1a1a" id="svg_73">
          <path class="st0" d="m343.15445,690.64004l132.3,77.3c1.3,0.8 2.9,-0.2 2.9,-1.7l0,-153.6c0,-0.7 -0.4,-1.3 -1,-1.7l-132.3,-77.3c-1.3,-0.8 -2.9,0.2 -2.9,1.7l0,153.7c0,0.6 0.4,1.2 1,1.6z" id="svg_74" style="fill: rgb(145, 36, 55);"/>
        </g>
      </g>
      <g fill="#eb1a1a" id="svg_75">
        <path class="st0" d="m361.35445,267.64004c-0.7,0 -1.4,-0.5 -1.6,-1.2c-2.9,-9.4 -8.8,-17.8 -17.5,-23.8l-103.4,-71.6c-16.9,-11.7 -40,-7.5 -51.7,9.4l-9.6,13.9l-40.5,-25.7c-0.8,-0.5 -1.8,-0.3 -2.3,0.5l-16.3,25.6c-0.5,0.8 -0.3,1.8 0.5,2.3l39.4,25l-88.2,127.2c-0.5,0.8 -0.3,1.8 0.4,2.3l100.6,69.7c0.8,0.5 1.8,0.3 2.4,-0.4l110.4,-159c9.9,-13.3 29.9,-13.8 43.8,-4.2c12.4,8.6 17.3,24 13.3,37.8c-0.3,1.1 -1.6,1.6 -2.5,1l-37.2,-23.6c-0.8,-0.5 -1.8,-0.3 -2.3,0.5l-17.3,25c-0.5,0.8 -0.3,1.9 0.5,2.4l137.8,87.4c0.7,0.5 0.4,1.6 -0.5,1.6l-143.6,0c-0.9,0 -1.7,0.8 -1.7,1.7l0,133.5c0,0.3 -0.1,0.6 -0.4,0.7l-96,60.9c-0.7,0.4 -1.5,-0.2 -1.2,-1c3.1,-8.8 4.4,-18.5 3.6,-28.6c-2.8,-33.9 -30.5,-61.1 -64.5,-63.3c-40.4,-2.6 -73.9,29.4 -73.9,69.2c0,14.9 4.7,28.7 12.8,40c0.3,0.5 0.1,1.1 -0.4,1.3c-30.2,8.9 -51.8,37.8 -49.5,71.4c2.4,34.3 30.1,62 64.4,64.3c22,1.5 41.9,-7.3 55.6,-22c0.4,-0.4 1.1,-0.3 1.3,0.2c12.1,22.5 36.4,37.6 64,36.4c36.4,-1.5 65.7,-31.6 66.4,-68c0.7,-35.7 -25.7,-65.4 -59.9,-70c-0.8,-0.1 -1,-1.1 -0.4,-1.5l77,-48.8c0.6,-0.4 1.3,0 1.3,0.7l0,87.4c0,117.4 94.3,214.3 211.7,214.7c117.7,0.4 213.2,-94.8 213.2,-212.4l0,-89.7c0,-0.7 0.7,-1.1 1.3,-0.7l77,48.8c0.7,0.4 0.4,1.4 -0.3,1.5c-34.3,4.6 -60.6,34.3 -59.9,70c0.7,36.4 30,66.5 66.4,68c27.6,1.1 51.9,-13.9 64,-36.4c0.3,-0.5 1,-0.6 1.3,-0.2c13.7,14.7 33.6,23.5 55.6,22c34.3,-2.3 62,-30 64.4,-64.3c2.3,-33.6 -19.3,-62.5 -49.5,-71.4c-0.6,-0.2 -0.8,-0.8 -0.4,-1.3c7.9,-11.1 12.6,-24.7 12.7,-39.4c0.4,-38.3 -31.2,-70.1 -69.4,-70c-38.3,0 -69.3,31.1 -69.3,69.3c0,8 1.3,15.6 3.8,22.7c0.3,0.8 -0.6,1.4 -1.2,1l-96,-60.9c-0.2,-0.2 -0.4,-0.4 -0.4,-0.7l0,-133.6c0,-0.9 -0.8,-1.7 -1.7,-1.7l-144,0c-0.8,0 -1.2,-1.1 -0.5,-1.6l137.8,-87.4c0.8,-0.5 1,-1.6 0.5,-2.4l-17.3,-25c-0.5,-0.7 -1.5,-1 -2.3,-0.5l-37.1,23.6c-1,0.6 -2.2,0.1 -2.5,-1c-4.1,-13.8 0.8,-29.1 13.3,-37.8c13.9,-9.6 33.9,-9.1 43.8,4.2l110.3,159.2c0.5,0.8 1.6,1 2.3,0.4l100.6,-69.7c0.8,-0.5 1,-1.6 0.4,-2.3l-87.7,-126.5c-0.3,-0.4 -0.2,-0.9 0.2,-1.2l38.7,-24.5c0.8,-0.5 1,-1.5 0.5,-2.3l-16.3,-25.6c-0.5,-0.8 -1.5,-1 -2.3,-0.5l-39.7,25.2c-0.4,0.2 -0.9,0.1 -1.1,-0.2l-9.2,-13.3c-11.7,-16.9 -34.8,-21.1 -51.7,-9.4l-103.4,71.6c-8.7,6 -14.6,14.5 -17.5,23.8c-0.2,0.7 -0.9,1.2 -1.6,1.2l-250.6,0.1l0,0zm386.1,32.3l19.6,-13.6c0.4,-0.3 0.5,-0.8 0.2,-1.2l-15.8,-22.8l-1.8,-2.6c-0.5,-0.8 -0.3,-1.8 0.4,-2.4l17.4,-12.1c0.8,-0.5 1.8,-0.3 2.3,0.4l2.4,3.5l15.3,22c0.3,0.4 0.8,0.5 1.2,0.2l19.6,-13.6c0.8,-0.5 1.8,-0.3 2.3,0.4l12.1,17.4c0.5,0.8 0.3,1.8 -0.4,2.4l-19.6,13.7c-0.4,0.3 -0.5,0.8 -0.2,1.2l24.6,35.6c0.5,0.8 0.3,1.8 -0.4,2.4l-17.4,12.1c-0.8,0.5 -1.8,0.3 -2.3,-0.4l-24.6,-35.6c-0.3,-0.4 -0.8,-0.5 -1.2,-0.2l-19.6,13.6c-0.8,0.5 -1.8,0.3 -2.3,-0.4l-12.1,-17.4c-0.7,-1 -0.5,-2.1 0.3,-2.6zm-521.2,2.3l-12.1,17.4c-0.5,0.8 -1.6,1 -2.4,0.4l-19.6,-13.6c-0.4,-0.3 -0.9,-0.2 -1.2,0.2l-24.6,35.6c-0.5,0.8 -1.6,1 -2.4,0.4l-17.3,-12c-0.8,-0.5 -1,-1.6 -0.4,-2.4l24.6,-35.6c0.3,-0.4 0.2,-0.9 -0.2,-1.2l-19.6,-13.6c-0.8,-0.5 -1,-1.6 -0.4,-2.4l12.1,-17.4c0.5,-0.8 1.6,-1 2.4,-0.4l19.6,13.6c0.4,0.3 0.9,0.2 1.2,-0.2l15.3,-22l2.4,-3.5c0.5,-0.8 1.6,-1 2.4,-0.4l17.4,12.1c0.8,0.5 1,1.6 0.4,2.4l-1.8,2.6l-15.8,22.8c-0.3,0.4 -0.2,0.9 0.2,1.2l19.6,13.6c0.5,0.6 0.7,1.7 0.2,2.4zm-149.2,409.5c-25.5,2 -46.7,-19.1 -44.7,-44.7c1.6,-20.1 17.9,-36.3 37.9,-37.9c25.5,-2 46.7,19.1 44.7,44.7c-1.5,20 -17.8,36.3 -37.9,37.9zm37.4,-107.8c-25.5,2 -46.7,-19.1 -44.7,-44.7c1.6,-20.1 17.9,-36.3 37.9,-37.9c25.5,-2 46.7,19.1 44.7,44.7c-1.6,20 -17.8,36.3 -37.9,37.9zm113.7,77.7c2,25.5 -19.1,46.7 -44.7,44.7c-20.1,-1.6 -36.4,-17.8 -37.9,-37.9c-2,-25.5 19.1,-46.7 44.7,-44.7c20.1,1.5 36.3,17.8 37.9,37.9zm157.4,-357.4c52.9,17.5 95.7,-11.3 100.7,-14.8c0.3,-0.2 0.7,-0.2 1,0c5,3.5 47.7,32.3 100.7,14.8c0.9,-0.3 1.5,1 0.7,1.5l-99.7,63.1c-0.7,0.4 -1.5,0.7 -2.3,0.7l0,0c-0.8,0 -1.6,-0.2 -2.3,-0.7l-99.5,-63.1c-0.9,-0.5 -0.3,-1.8 0.7,-1.5zm288.2,332c0,103.6 -84.1,187.5 -187.8,187.1c-103.4,-0.4 -186.5,-85.7 -186.5,-189.2l0,-237.6c0,-0.9 0.8,-1.7 1.7,-1.7l370.9,0c0.9,0 1.7,0.8 1.7,1.7l0,239.7zm116,70c-25.5,2 -46.7,-19.1 -44.7,-44.7c1.6,-20.1 17.8,-36.3 37.9,-37.9c25.5,-2 46.7,19.1 44.7,44.7c-1.5,20.1 -17.8,36.3 -37.9,37.9zm31.2,-160.3c-2,-25.5 19.1,-46.7 44.7,-44.7c20.1,1.6 36.3,17.8 37.9,37.9c2,25.5 -19.1,46.7 -44.7,44.7c-20.1,-1.5 -36.4,-17.8 -37.9,-37.9zm82,145.8c-25.5,2 -46.7,-19.1 -44.7,-44.7c1.6,-20.1 17.9,-36.3 37.9,-37.9c25.5,-2 46.7,19.1 44.7,44.7c-1.5,20 -17.8,36.3 -37.9,37.9z" id="svg_76" style="fill: rgb(145, 36, 55);"/>
      </g>
    </g>
  </g>
  <g>
    <title>Layer 2</title>
    <rect fill="none" y="0" x="0" height="100%" width="100%" id="backgroundrect"/>
  </g>
</svg>